<?xml version="1.0" encoding="UTF-8" standalone="no"?>
<!-- Created with Inkscape (http://www.inkscape.org/) -->

<svg
   width="42.124844mm"
   height="41.86351mm"
   viewBox="0 0 42.124844 41.86351"
   version="1.1"
   id="svg5"
   xmlSpace="preserve"
   sodipodiDocname="catcode.svg"
   inkscapeExport-filename="catcodewhite.svg"
   inkscapeExport-xdpi="96"
   inkscapeExport-ydpi="96">
    <g
     inkscapeLabel="Camada 1"
     inkscapeGroupmode="layer"
     id="layer1"
     transform="translate(-44.932637,-122.24746)"><path
       fill="#000000" stroke="0.0846667"
       d="m 67.109545,163.92451 -0.462744,-0.17764 -0.434401,-0.4344 -0.434401,-0.43441 -0.182355,-0.48738 -0.182354,-0.48739 v -0.58631 -0.58631 l 0.182354,-0.48739 0.182355,-0.48739 0.434103,-0.4341 0.434103,-0.4341 0.487385,-0.18236 0.487386,-0.18235 h 0.586314 0.586314 l 0.487386,0.18235 0.487386,0.18236 0.434103,0.4341 0.434103,0.4341 0.182354,0.48739 0.182354,0.48739 v 0.58631 0.58631 l -0.182354,0.48739 -0.182354,0.48738 -0.434103,0.43411 -0.434103,0.4341 -0.487386,0.18235 -0.487386,0.18236 -0.610656,-0.004 -0.610658,-0.004 -0.462745,-0.17765 z m -4.556677,-6.86203 c -0.09069,-0.15134 -0.78476,-1.39912 -1.542369,-2.77283 -0.757608,-1.37372 -2.798834,-5.05371 -4.536057,-8.17776 l -3.158587,-5.68009 2.994062,-2.99824 2.994061,-2.99825 -0.444861,-0.762 c -0.244674,-0.4191 -1.101658,-1.905 -1.904407,-3.302 -0.80275,-1.397 -1.485392,-2.56514 -1.516983,-2.59587 -0.04714,-0.0459 -5.233993,2.66421 -5.381598,2.81181 -0.02492,0.0249 0.236784,0.95808 0.581563,2.07369 0.344779,1.1156 0.60041,2.05481 0.568068,2.08712 -0.17227,0.17209 -3.030006,1.82301 -3.073307,1.77546 -0.02814,-0.0309 -0.759615,-2.18223 -1.625492,-4.7807 l -1.574322,-4.72449 0.143826,-0.0532 c 0.294572,-0.1089 8.240713,-3.22881 10.811825,-4.24508 0.6985,-0.27609 1.292424,-0.48834 1.319829,-0.47167 0.02741,0.0167 0.273554,0.40335 0.546995,0.85927 0.273442,0.45593 0.884164,1.45761 1.35716,2.22596 0.472996,0.76835 1.970485,3.21783 3.327752,5.44328 l 2.46776,4.04629 -1.511556,1.62638 c -0.831356,0.89451 -2.032257,2.18767 -2.668669,2.8737 l -1.157112,1.24732 1.157641,1.6125 c 0.636703,0.88687 1.198867,1.59901 1.249254,1.58253 0.05039,-0.0165 1.691813,-1.70328 3.647613,-3.74846 1.9558,-2.04517 4.45135,-4.64589 5.545666,-5.77937 l 1.989667,-2.06086 3.005667,-1.35681 c 3.519839,-1.5889 2.97505,-1.14545 4.529927,-3.68734 1.426906,-2.33268 1.302275,-2.21213 1.600335,-1.54796 0.124696,0.27786 0.474236,1.02117 0.776756,1.65181 l 0.550036,1.14661 0.187306,-0.0426 c 1.107505,-0.25213 3.234631,-0.70735 3.246508,-0.69478 0.04687,0.0496 -2.423243,5.272 -2.519786,5.32741 -0.06385,0.0366 -0.893676,0.33101 -1.844067,0.65416 -0.950392,0.32314 -1.7553,0.63173 -1.788687,0.68575 -0.03339,0.054 -0.432611,1.30375 -0.887167,2.77718 -0.454555,1.47343 -0.989657,3.19331 -1.189114,3.82196 -0.199457,0.62865 -1.263547,4.0386 -2.364644,7.57767 -1.101097,3.53907 -2.172275,6.97759 -2.380397,7.64117 l -0.378403,1.2065 h -5.493396 -5.493396 z"
       id="path494" /></g></svg>
